<svg width="38" height="38" viewBox="0 0 38 38" fill="none" xmlns="http://www.w3.org/2000/svg">
<g clip-path="url(#clip0)">
<path fill-rule="evenodd" clip-rule="evenodd" d="M27.5848 32.2905C27.3046 31.6334 27.2381 31.1853 27.1272 30.5203C28.1168 29.4167 29.0098 28.253 29.8063 27.0307C30.7246 26.7203 31.8187 26.3372 33.4178 25.517C32.1591 28.2973 30.1245 30.6454 27.5848 32.2905V32.2905ZM14.6316 34.2095C16.2767 33.326 17.6241 32.3206 19.114 31.2028C20.7163 31.6033 22.4058 31.8282 24.1712 31.9042L24.1728 31.9153C24.3042 32.604 24.4973 33.1867 24.7459 33.7408C21.5998 34.9711 18.1244 35.2133 14.6316 34.2095ZM3.16825 18.9794L5.18383 20.9063C4.87667 22.61 4.79117 24.1822 4.81333 25.9952C3.76992 23.883 3.16667 21.5143 3.16667 19L3.16825 18.9794V18.9794ZM21.1723 3.33292L19.9722 6.08317C16.5854 6.96983 14.6142 7.86442 11.7167 9.41925L7.18358 8.49142C10.5529 4.70883 15.6338 2.56975 21.1723 3.33292ZM18.316 21.9672C16.6013 20.8177 15.2428 19.6492 12.8282 17.6494L13.6927 11.9874C15.9822 10.6448 17.7555 10.0257 20.7813 9.05983C22.363 10.1476 23.9226 11.3208 25.4268 12.5685L25.4236 12.6049C25.2051 15.3583 24.7586 17.4594 24.0857 19.722C22.192 20.5517 20.2698 21.3022 18.316 21.9672V21.9672ZM10.7825 32.5138C9.90375 31.977 9.08517 31.3611 8.32992 30.6708C7.92458 27.6292 7.75833 24.5116 8.32517 21.3845L8.32675 21.3782L11.0438 20.1986C12.9612 21.9814 14.7583 23.3716 16.8641 24.8346L16.9638 28.8325C14.8691 30.4887 13.2129 31.5843 10.7825 32.5138V32.5138ZM34.7035 20.938C33.1202 22.0812 31.8915 22.8776 29.9139 23.6027L27.1684 20.425C27.8825 18.1307 28.3369 15.675 28.5396 12.9406L32.4963 10.754C34.3124 13.718 35.1579 17.1918 34.7035 20.938V20.938ZM19 0C8.51358 0 0 8.51358 0 19C0 29.4864 8.51358 38 19 38C29.4864 38 38 29.4864 38 19C38 8.51358 29.4864 0 19 0Z" fill="url(#paint0_linear)"/>
</g>
<defs>
<linearGradient id="paint0_linear" x1="19" y1="0" x2="19" y2="38" gradientUnits="userSpaceOnUse">
<stop offset="0.28125" stop-color="#169213"/>
<stop offset="0.572917" stop-color="#CCCF1F"/>
</linearGradient>
<clipPath id="clip0">
<rect width="38" height="38" fill="white"/>
</clipPath>
</defs>
</svg>
