<svg width="38" height="38" viewBox="0 0 38 38" fill="none" xmlns="http://www.w3.org/2000/svg">
<rect width="38" height="38" fill="url(#paint0_linear)"/>
<path d="M19 0C8.50883 0 0 8.50725 0 19C0 27.3948 5.4435 34.5167 12.9944 37.0294C13.9428 37.2052 14.25 36.6162 14.25 36.1158V32.5787C8.96483 33.7282 7.86442 30.3367 7.86442 30.3367C6.99992 28.1406 5.75383 27.5563 5.75383 27.5563C4.02958 26.3767 5.88525 26.4021 5.88525 26.4021C7.79317 26.5351 8.797 28.3607 8.797 28.3607C10.4912 31.2645 13.2414 30.4253 14.326 29.9393C14.4954 28.7122 14.9878 27.873 15.5325 27.3996C11.3129 26.9167 6.87642 25.2874 6.87642 18.0088C6.87642 15.9331 7.619 14.2389 8.83342 12.9089C8.63708 12.4292 7.98633 10.4959 9.01867 7.88025C9.01867 7.88025 10.6147 7.37042 14.2452 9.82775C15.7605 9.40658 17.385 9.196 19 9.18808C20.615 9.196 22.2411 9.40658 23.7595 9.82775C27.3869 7.37042 28.9797 7.88025 28.9797 7.88025C30.0137 10.4975 29.3629 12.4308 29.1666 12.9089C30.3857 14.2389 31.122 15.9347 31.122 18.0088C31.122 25.3064 26.6776 26.9135 22.4469 27.3838C23.1278 27.9728 23.75 29.1286 23.75 30.9019V36.1158C23.75 36.6209 24.054 37.2147 25.0183 37.0278C32.5628 34.5119 38 27.3917 38 19C38 8.50725 29.4928 0 19 0Z" fill="url(#paint1_linear)"/>
<defs>
<linearGradient id="paint0_linear" x1="19" y1="0" x2="19" y2="38" gradientUnits="userSpaceOnUse">
<stop stop-color="white"/>
<stop offset="1" stop-color="white" stop-opacity="0"/>
</linearGradient>
<linearGradient id="paint1_linear" x1="19" y1="0" x2="19" y2="37.063" gradientUnits="userSpaceOnUse">
<stop offset="0.354167" stop-color="#083548"/>
<stop offset="1" stop-opacity="0"/>
</linearGradient>
</defs>
</svg>
