<svg width="38" height="38" viewBox="0 0 38 38" fill="none" xmlns="http://www.w3.org/2000/svg">
<path d="M30.0833 0H7.91667C3.54508 0 0 3.54508 0 7.91667V30.0833C0 34.4549 3.54508 38 7.91667 38H30.0833C34.4565 38 38 34.4549 38 30.0833V7.91667C38 3.54508 34.4565 0 30.0833 0ZM12.6667 30.0833H7.91667V12.6667H12.6667V30.0833ZM10.2917 10.659C8.76217 10.659 7.52083 9.40817 7.52083 7.866C7.52083 6.32383 8.76217 5.073 10.2917 5.073C11.8212 5.073 13.0625 6.32383 13.0625 7.866C13.0625 9.40817 11.8228 10.659 10.2917 10.659ZM31.6667 30.0833H26.9167V21.2103C26.9167 15.8777 20.5833 16.2814 20.5833 21.2103V30.0833H15.8333V12.6667H20.5833V15.4613C22.7937 11.3668 31.6667 11.0643 31.6667 19.3816V30.0833Z" fill="url(#paint0_linear)"/>
<defs>
<linearGradient id="paint0_linear" x1="19" y1="0" x2="19" y2="38" gradientUnits="userSpaceOnUse">
<stop offset="0.296875" stop-color="#0036F8"/>
<stop offset="1" stop-color="#1B264E"/>
</linearGradient>
</defs>
</svg>
